<svg xmlns="http://www.w3.org/2000/svg" viewBox="0 0 512 512">
<defs>
 <linearGradient id="fur" x1="0" y1="0" x2="1" y2="1"><stop stop-color="#ffe7bb"/><stop offset="1" stop-color="#bf8159"/></linearGradient>
 <linearGradient id="blue" x1="0" y1="0" x2="0.8" y2="1"><stop stop-color="#7af3ff"/><stop offset="1" stop-color="#2794d9"/></linearGradient>
 <linearGradient id="bubble" x1="0" y1="0" x2="1" y2="1"><stop stop-color="#ffffff" stop-opacity=".76"/><stop offset=".45" stop-color="#7fe7ff" stop-opacity=".2"/><stop offset="1" stop-color="#4ba9ff" stop-opacity=".5"/></linearGradient>
</defs>
<ellipse cx="256" cy="466" rx="138" ry="21" fill="#263b4d" opacity=".17"/>
<!-- orbit bubbles -->
<circle cx="126" cy="177" r="30" fill="url(#bubble)" stroke="#46bde9" stroke-width="7"/><ellipse cx="117" cy="166" rx="9" ry="6" fill="#fff" opacity=".95"/>
<circle cx="385" cy="146" r="20" fill="url(#bubble)" stroke="#46bde9" stroke-width="6"/><ellipse cx="379" cy="139" rx="6" ry="4" fill="#fff"/>
<circle cx="392" cy="285" r="27" fill="url(#bubble)" stroke="#46bde9" stroke-width="6"/><ellipse cx="384" cy="275" rx="8" ry="5" fill="#fff"/>
<circle cx="119" cy="319" r="17" fill="url(#bubble)" stroke="#46bde9" stroke-width="5"/>
<!-- body -->
<path d="M164 342 Q176 300 215 296 L299 296 Q339 302 350 351 L340 438 Q334 456 305 450 L293 402 L220 402 L208 450 Q178 456 168 438 Z" fill="url(#blue)" stroke="#31506b" stroke-width="12" stroke-linejoin="round"/>
<path d="M192 342 Q256 370 320 342 L324 398 L188 398 Z" fill="#b8f7ff" opacity=".72"/>
<path d="M204 438 Q223 429 242 442 L246 455 Q225 471 199 456 Z M271 442 Q291 428 313 441 L319 456 Q300 471 278 456 Z" fill="#fff0c5" stroke="#31506b" stroke-width="9"/>
<!-- ears and head -->
<path d="M173 180 Q127 161 128 221 Q131 269 177 276 L202 236 Z M339 180 Q385 161 384 221 Q381 269 335 276 L310 236 Z" fill="#a96543" stroke="#57403b" stroke-width="12"/>
<path d="M162 157 Q177 101 256 101 Q335 101 351 157 L347 243 Q335 307 256 315 Q178 307 165 243 Z" fill="url(#fur)" stroke="#57403b" stroke-width="13"/>
<!-- bubble helmet ring -->
<path d="M155 175 Q138 105 202 68 Q256 37 310 68 Q375 104 357 175" fill="none" stroke="#66e6ff" stroke-width="17" stroke-linecap="round"/>
<path d="M172 133 Q194 83 237 77" fill="none" stroke="#ffffff" stroke-width="9" stroke-linecap="round" opacity=".95"/>
<!-- eyes and muzzle -->
<ellipse cx="216" cy="219" rx="11" ry="16" fill="#2c3446"/><ellipse cx="296" cy="219" rx="11" ry="16" fill="#2c3446"/>
<circle cx="219" cy="213" r="4" fill="#fff"/><circle cx="299" cy="213" r="4" fill="#fff"/>
<ellipse cx="256" cy="255" rx="44" ry="31" fill="#fff7e8" stroke="#57403b" stroke-width="8"/>
<ellipse cx="256" cy="247" rx="16" ry="11" fill="#2c3446"/><path d="M256 257 L256 270 Q242 280 231 268 M256 270 Q270 280 281 268" fill="none" stroke="#57403b" stroke-width="7" stroke-linecap="round"/>
<!-- little bubble wand -->
<path d="M344 326 L400 241" fill="none" stroke="#31506b" stroke-width="12" stroke-linecap="round"/>
<circle cx="412" cy="222" r="35" fill="url(#bubble)" stroke="#2794d9" stroke-width="9"/>
<ellipse cx="400" cy="210" rx="11" ry="7" fill="#fff" opacity=".9"/>
<path d="M369 339 Q390 312 411 339 Q391 365 369 339 Z" fill="#6ce8ff" stroke="#31506b" stroke-width="7"/>
</svg>