<svg xmlns="http://www.w3.org/2000/svg" viewBox="0 0 512 512">
<defs>
 <linearGradient id="petal" x1="0" y1="0" x2="0.8" y2="1"><stop stop-color="#fff478"/><stop offset="1" stop-color="#f4a928"/></linearGradient>
 <linearGradient id="face" x1="0" y1="0" x2="1" y2="1"><stop stop-color="#fff0c2"/><stop offset="1" stop-color="#d99a65"/></linearGradient>
 <linearGradient id="green" x1="0" y1="0" x2="1" y2="1"><stop stop-color="#8ee66d"/><stop offset="1" stop-color="#318c48"/></linearGradient>
</defs>
<ellipse cx="256" cy="463" rx="136" ry="21" fill="#35462b" opacity=".18"/>
<!-- sunflower halo -->
<g stroke="#925b22" stroke-width="9" stroke-linejoin="round" fill="url(#petal)">
 <ellipse cx="256" cy="94" rx="31" ry="57"/><ellipse cx="256" cy="94" rx="31" ry="57" transform="rotate(30 256 180)"/>
 <ellipse cx="256" cy="94" rx="31" ry="57" transform="rotate(60 256 180)"/><ellipse cx="256" cy="94" rx="31" ry="57" transform="rotate(90 256 180)"/>
 <ellipse cx="256" cy="94" rx="31" ry="57" transform="rotate(120 256 180)"/><ellipse cx="256" cy="94" rx="31" ry="57" transform="rotate(150 256 180)"/>
 <ellipse cx="256" cy="94" rx="31" ry="57" transform="rotate(180 256 180)"/><ellipse cx="256" cy="94" rx="31" ry="57" transform="rotate(210 256 180)"/>
 <ellipse cx="256" cy="94" rx="31" ry="57" transform="rotate(240 256 180)"/><ellipse cx="256" cy="94" rx="31" ry="57" transform="rotate(270 256 180)"/>
 <ellipse cx="256" cy="94" rx="31" ry="57" transform="rotate(300 256 180)"/><ellipse cx="256" cy="94" rx="31" ry="57" transform="rotate(330 256 180)"/>
</g>
<circle cx="256" cy="180" r="66" fill="#8d4d2d" stroke="#573a31" stroke-width="12"/>
<circle cx="256" cy="180" r="50" fill="#b66b32"/>
<g fill="#5b3825" opacity=".8"><circle cx="226" cy="160" r="5"/><circle cx="250" cy="145" r="5"/><circle cx="278" cy="158" r="5"/><circle cx="286" cy="185" r="5"/><circle cx="251" cy="200" r="5"/><circle cx="227" cy="190" r="5"/><circle cx="265" cy="174" r="5"/></g>
<!-- body -->
<path d="M165 342 Q174 296 215 295 L299 295 Q340 300 350 350 L340 437 Q333 456 305 450 L293 403 L220 403 L208 450 Q179 456 168 436 Z" fill="url(#green)" stroke="#3c5335" stroke-width="12" stroke-linejoin="round"/>
<path d="M199 336 Q226 356 256 351 Q286 356 313 336 L324 399 L188 399 Z" fill="#bee87b" opacity=".8"/>
<path d="M205 439 Q225 429 242 442 L246 455 Q225 471 199 456 Z M270 442 Q291 428 313 440 L320 455 Q300 471 278 455 Z" fill="#fff0c5" stroke="#3c5335" stroke-width="9"/>
<!-- leaves -->
<path d="M176 364 Q127 336 127 302 Q168 301 200 341 Z M330 367 Q380 336 387 306 Q344 302 308 345 Z" fill="#6dcf5f" stroke="#3c5335" stroke-width="9" stroke-linejoin="round"/>
<!-- head / ears -->
<path d="M173 190 Q128 169 131 224 Q135 267 177 273 L201 238 Z M339 190 Q384 169 381 224 Q377 267 335 273 L311 238 Z" fill="#b97346" stroke="#573a31" stroke-width="11"/>
<path d="M161 167 Q178 119 256 121 Q333 119 351 167 L346 244 Q334 301 257 309 Q179 302 166 244 Z" fill="url(#face)" stroke="#573a31" stroke-width="12"/>
<path d="M214 211 Q225 194 238 211 M274 211 Q287 194 299 211" stroke="#573a31" stroke-width="8" fill="none" stroke-linecap="round"/>
<ellipse cx="218" cy="219" rx="9" ry="13" fill="#342633"/><ellipse cx="294" cy="219" rx="9" ry="13" fill="#342633"/>
<circle cx="221" cy="215" r="3.5" fill="#fff"/><circle cx="297" cy="215" r="3.5" fill="#fff"/>
<ellipse cx="256" cy="255" rx="43" ry="30" fill="#fff8e4" stroke="#573a31" stroke-width="7"/>
<ellipse cx="256" cy="247" rx="15" ry="10" fill="#342633"/><path d="M256 256 L256 270 Q242 279 232 267 M256 270 Q270 279 280 267" fill="none" stroke="#573a31" stroke-width="6" stroke-linecap="round"/>
<!-- golden sparkles -->
<path d="M105 132 L113 150 L132 158 L113 165 L105 185 L97 165 L78 158 L97 150 Z M399 214 L405 229 L421 235 L405 241 L399 257 L393 241 L377 235 L393 229 Z" fill="#ffe774" stroke="#a86a26" stroke-width="5" stroke-linejoin="round"/>
</svg>